<svg xmlns="http://www.w3.org/2000/svg" xmlns:xlink="http://www.w3.org/1999/xlink" width="60" height="60" viewBox="0 0 60 60">
  <defs>
    <style>
      .cls-1 {
        clip-path: url(#clip-Easy-to-use);
      }

      .cls-2, .cls-6 {
        fill: none;
      }

      .cls-2 {
        stroke: #fff;
        stroke-linejoin: round;
        stroke-width: 4px;
      }

      .cls-3 {
        clip-path: url(#clip-path);
      }

      .cls-4 {
        fill: #fff;
        stroke: #000;
        stroke-width: 0.3px;
      }

      .cls-5 {
        stroke: none;
      }
    </style>
    <clipPath id="clip-path">
      <rect id="Rectangle_1" data-name="Rectangle 1" width="42" height="44"/>
    </clipPath>
    <clipPath id="clip-Easy-to-use">
      <rect width="60" height="60"/>
    </clipPath>
  </defs>
  <g id="Easy-to-use" class="cls-1">
    <g id="ll" class="cls-3" transform="translate(9 8)">
      <path id="_1--medapps" data-name="1--medapps" class="cls-4" d="M14.788,19.7c.438-1.033.863-2.776,1.65-2.776,1.038.149,1.2,1.933,2.325,3.024.575-1.942.663-7.032,1.762-7.164,1.125-.058,2.462,5.495,2.75,6.4a53.9,53.9,0,0,0,6.113.546c.237.6-3,.628-5,.645-.575,1.223-.675,2.289-1.425,2.313-.587.017-1.025-2.379-2.187-4.1L19.6,24.007c-.55,1.075-1.937-1.862-2.737-3.248-.413-.008-7.8-.132-5.95-.645l3.875-.413ZM28.5,37.019c2.65,0,2.65-2.644,0-2.644h-17c-2.65,0-2.65,2.644,0,2.644Zm-3,5.288c2.65,0,2.65-2.644,0-2.644h-11c-2.65,0-2.65,2.644,0,2.644Zm4.275-11.692a10.408,10.408,0,0,1,1.487-4.033c.988-1.215,2.013-2.322,3-3.385C37.338,19.857,40,16.981,40,12.824,40,5.754,31.025,0,20,0S0,5.754,0,12.824c0,4.146,2.663,7.032,5.738,10.37.988,1.066,2,2.173,3,3.385a10.4,10.4,0,0,1,1.487,4.04c.438,1.735,4.513,1.3,4.075-.423-.45-1.793-.7-3.363-1.913-4.843-4.075-4.992-8.263-7.9-8.263-12.535C4.125,7.213,11.25,2.644,20,2.644s15.875,4.569,15.875,10.18c0,4.636-4.187,7.544-8.262,12.523C26.4,26.839,26.15,28.442,25.7,30.194c-.425,1.7,3.625,2.181,4.075.423Z" transform="translate(0.868 0.846)"/>
    </g>
  </g>
</svg>
