<svg xmlns="http://www.w3.org/2000/svg" xmlns:xlink="http://www.w3.org/1999/xlink" width="60" height="60" viewBox="0 0 60 60">
  <defs>
    <style>
      .cls-1 {
        clip-path: url(#clip-quick-support);
      }

      .cls-2 {
        clip-path: url(#clip-path);
      }

      .cls-3 {
        fill: #fff;
        stroke: #000;
        stroke-width: 0.4px;
      }
    </style>
    <clipPath id="clip-path">
      <rect id="Rectangle_1" data-name="Rectangle 1" width="44" height="44"/>
    </clipPath>
    <clipPath id="clip-quick-support">
      <rect width="60" height="60"/>
    </clipPath>
  </defs>
  <g id="quick-support" class="cls-1">
    <g id="suport" class="cls-2" transform="translate(8 8)">
      <path id="_1--desktop_2" data-name="1--desktop_2" class="cls-3" d="M15.349,16.628a2.558,2.558,0,0,0-2.558-2.558H11.512A5.116,5.116,0,0,0,6.4,19.186v3.837a5.116,5.116,0,0,0,5.116,5.116h1.279a2.558,2.558,0,0,0,2.558-2.558ZM29.419,28.14a5.116,5.116,0,0,0,5.116-5.116V19.186a5.116,5.116,0,0,0-5.116-5.116H28.14a2.558,2.558,0,0,0-2.558,2.558v8.953A2.558,2.558,0,0,0,28.14,28.14ZM20.465,0C9.048,0,.366,9.5,0,20.465v1.279a1.279,1.279,0,0,0,1.279,1.279H2.558a1.279,1.279,0,0,0,1.279-1.279V20.465a16.628,16.628,0,1,1,33.256,0h-.009c.006.194.009,13.248.009,13.248a3.377,3.377,0,0,1-3.377,3.377H25.581a3.837,3.837,0,0,0-3.837-3.837H19.186a3.837,3.837,0,0,0,0,7.674h14.53a7.217,7.217,0,0,0,7.214-7.214V20.465C40.564,9.5,31.883,0,20.465,0Z" transform="translate(2.047 2.047)"/>
    </g>
  </g>
</svg>
